<?xml version="1.0" standalone="no"?>
<!DOCTYPE svg PUBLIC "-//W3C//DTD SVG 20010904//EN"
 "http://www.w3.org/TR/2001/REC-SVG-20010904/DTD/svg10.dtd">
<svg version="1.0" xmlns="http://www.w3.org/2000/svg"
 width="878.000000pt" height="878.000000pt" viewBox="0 0 878.000000 878.000000"
 preserveAspectRatio="xMidYMid meet">
<metadata>
Created by potrace 1.14, written by Peter Selinger 2001-2017
</metadata>
<g transform="translate(0.000000,878.000000) scale(0.100000,-0.100000)"
fill="#000000" stroke="none">
<path d="M4138 8775 c-1 -1 -43 -6 -93 -9 -49 -4 -108 -9 -130 -11 -149 -18
-202 -26 -303 -45 -85 -15 -102 -19 -120 -24 -9 -3 -33 -7 -52 -10 -19 -3 -93
-22 -165 -41 -71 -20 -138 -38 -148 -40 -10 -2 -73 -23 -140 -45 -367 -125
-744 -312 -1062 -528 -95 -65 -256 -184 -292 -216 -6 -6 -24 -21 -40 -33 -39
-30 -64 -52 -168 -147 -164 -151 -241 -232 -420 -441 -14 -16 -51 -64 -83
-105 -31 -41 -59 -77 -63 -80 -10 -9 -154 -223 -211 -315 -212 -343 -391 -759
-499 -1163 -35 -131 -31 -112 -63 -272 -31 -157 -38 -201 -51 -310 -4 -30 -8
-71 -11 -90 -19 -164 -26 -651 -11 -810 18 -188 30 -283 54 -410 8 -47 17 -96
19 -110 3 -14 22 -97 44 -185 79 -322 202 -652 351 -940 88 -171 112 -214 199
-350 28 -44 56 -89 63 -99 7 -11 17 -27 24 -35 7 -9 42 -59 79 -111 37 -52 70
-97 74 -100 3 -3 24 -27 45 -55 22 -27 42 -52 45 -55 3 -3 24 -27 45 -54 46
-57 46 -57 181 -197 162 -168 329 -316 504 -447 52 -39 100 -75 105 -80 6 -4
62 -42 125 -84 522 -343 1095 -568 1701 -667 292 -48 390 -55 709 -56 216 0
453 9 468 19 4 2 41 7 82 10 41 4 84 9 95 11 11 2 38 7 60 10 22 3 83 14 135
25 52 11 106 22 120 24 275 53 678 196 990 350 163 81 167 83 325 177 142 85
140 84 145 89 3 3 41 29 85 59 44 30 92 64 107 75 14 12 41 32 59 46 76 57
227 181 274 225 245 228 392 389 576 630 80 104 279 405 279 421 0 2 11 21 24
42 96 152 261 521 345 769 48 142 123 413 136 493 3 19 10 54 15 76 5 23 11
56 14 75 2 19 7 45 10 59 6 29 14 79 22 152 3 29 8 64 10 78 25 150 25 728 0
935 -2 17 -7 55 -10 86 -4 31 -9 67 -11 80 -5 22 -10 53 -20 123 -14 97 -81
383 -115 491 -110 350 -242 660 -383 905 -27 47 -55 94 -61 105 -49 86 -177
276 -260 385 -246 324 -483 566 -810 825 -241 191 -625 420 -926 553 -270 119
-655 240 -915 288 -49 9 -99 18 -110 20 -11 3 -52 9 -92 15 -39 5 -80 12 -91
14 -11 2 -53 7 -94 10 -40 4 -89 9 -108 11 -41 6 -607 14 -612 9z"/>
</g>
</svg>
